<svg width="31" height="31" viewBox="0 0 31 31" fill="none" xmlns="http://www.w3.org/2000/svg">
<mask id="path-1-inside-1_76_228" fill="white">
<path d="M0 21C0 26.5228 4.47715 31 10 31H15.7541V1.90735e-06H10C4.47716 1.90735e-06 0 4.47715 0 10V21Z"/>
</mask>
<path d="M0 21C0 26.5228 4.47715 31 10 31H15.7541V1.90735e-06H10C4.47716 1.90735e-06 0 4.47715 0 10V21Z" fill="#1F1D1D"/>
<path d="M-2 21C-2 27.6274 3.37258 33 10 33H15.7541V29H10C5.58172 29 2 25.4183 2 21H-2ZM15.7541 -2H10C3.37258 -2 -2 3.37258 -2 10H2C2 5.58172 5.58172 2 10 2H15.7541V-2ZM10 -2C3.37258 -2 -2 3.37258 -2 10V21C-2 27.6274 3.37258 33 10 33V29C5.58172 29 2 25.4183 2 21V10C2 5.58172 5.58172 2 10 2V-2ZM15.7541 31V1.90735e-06V31Z" fill="#FFF9D3" mask="url(#path-1-inside-1_76_228)"/>
<path d="M31 10C31 4.47715 26.5228 -7.70184e-07 21 -1.72025e-06L15.7541 -2.62268e-06L15.7541 31L21 31C26.5228 31 31 26.5228 31 21L31 10Z" fill="#FFF9D3"/>
</svg>
