<svg width="31" height="31" viewBox="0 0 31 31" fill="none" xmlns="http://www.w3.org/2000/svg">
<mask id="path-1-inside-1_76_230" fill="white">
<path d="M15.7542 0L10.0001 -9.8985e-07C4.47721 -1.93992e-06 5.32069e-05 4.47715 5.29615e-05 10L5.24728e-05 21C5.22274e-05 26.5228 4.47721 31 10.0001 31L15.7541 31L15.7542 0Z"/>
</mask>
<path d="M15.7542 0L10.0001 -9.8985e-07C4.47721 -1.93992e-06 5.32069e-05 4.47715 5.29615e-05 10L5.24728e-05 21C5.22274e-05 26.5228 4.47721 31 10.0001 31L15.7541 31L15.7542 0Z" fill="#8B0000"/>
<path d="M15.7542 -2L10.0001 -2C3.37264 -2 -1.99995 3.37258 -1.99995 10L2.00005 10C2.00005 5.58172 5.58178 2 10.0001 2L15.7542 2L15.7542 -2ZM-1.99995 21C-1.99995 27.6274 3.37263 33 10.0001 33L15.7541 33L15.7541 29L10.0001 29C5.58177 29 2.00005 25.4183 2.00005 21L-1.99995 21ZM15.7541 31L15.7542 0L15.7541 31ZM10.0001 -2C3.37264 -2 -1.99995 3.37258 -1.99995 10L-1.99995 21C-1.99995 27.6274 3.37263 33 10.0001 33L10.0001 29C5.58177 29 2.00005 25.4183 2.00005 21L2.00005 10C2.00005 5.58172 5.58178 2 10.0001 2L10.0001 -2Z" fill="#00FF7F" mask="url(#path-1-inside-1_76_230)"/>
<path d="M31 10C31 4.47715 26.5228 -7.70184e-07 21 -1.72025e-06L15.7541 -2.62268e-06L15.7541 31L21 31C26.5228 31 31 26.5228 31 21L31 10Z" fill="#00FF7F"/>
</svg>
