<?xml version="1.0" encoding="UTF-8"?>
<svg id="Layer_2" data-name="Layer 2" xmlns="http://www.w3.org/2000/svg" viewBox="0 0 59 59">
  <defs>
    <style>
      .cls-1 {
        fill: #c71426;
      }

      .cls-1, .cls-2, .cls-3 {
        stroke-width: 0px;
      }

      .cls-2 {
        fill: #fff;
      }

      .cls-3 {
        fill: #002172;
      }
    </style>
  </defs>
  <g id="Layer_1-2" data-name="Layer 1">
    <g>
      <path class="cls-3" d="m59,10.56v37.83c0,.23-.01.47-.02.7-.03.41-.08.81-.15,1.2-.89,4.95-5.23,8.71-10.44,8.71H10.61c-5.21,0-9.54-3.75-10.43-8.7-.08-.39-.13-.79-.16-1.19-.01-.24-.02-.48-.02-.72V10.54c0-.42.03-.83.08-1.23.05-.4.12-.78.21-1.16C1.4,3.48,5.6,0,10.61,0h37.78c5.02,0,9.23,3.49,10.32,8.17.1.38.17.76.21,1.16.05.4.08.81.08,1.23Z"/>
      <path class="cls-1" d="m59,10.56v4.5l-14.59,8.42-1.92,1.11-7.97,4.6,7.97,4.6,1.92,1.11,14.59,8.43v5.06c0,.23-.01.47-.02.7l-23.76-13.72-1.11-.64-4.59-2.65-4.6,2.66-1.11.64L.02,49.11c-.01-.24-.02-.48-.02-.72v-5.05l14.62-8.44,1.92-1.11,7.97-4.6-7.97-4.6-1.92-1.11L0,15.04v-4.5c0-.42.03-.83.08-1.23l23.73,13.69,1.11.65,4.6,2.65,4.59-2.65,1.11-.64,23.7-13.68c.05.4.08.81.08,1.23Z"/>
      <polygon class="cls-1" points="59 23.48 59 34.9 35.22 34.9 35.22 59 23.81 59 23.81 34.9 0 34.9 0 23.48 23.81 23.48 23.81 0 35.22 0 35.22 23.48 59 23.48"/>
      <path id="rect4572" class="cls-2" d="m22.7,0v21.09L.29,8.15c-.09.38-.16.76-.21,1.16-.05.4-.08.81-.08,1.23l20.49,11.83h-5.57L0,13.76v2.56l10.48,6.05H0v2.22h21.08c1.51,0,2.43-.06,3.84-.06V0h-2.22Zm15.84,22.37l20.46-11.81c0-.42-.03-.83-.08-1.23-.04-.4-.11-.78-.21-1.16l-22.37,12.92V0h-2.23v24.6c1.36,0,2.62-.01,3.85-.01h21.04v-2.22h-10.45l10.45-6.03v-2.56l-14.89,8.59h-5.57Zm-17.46,11.42H0v2.22h10.48L0,42.06v2.57l14.92-8.62h5.57L0,47.84v.55c0,.24.01.48.02.72.03.4.08.8.16,1.19l22.52-13v21.7h2.22v-25.18c-1.28,0-2.62-.03-3.84-.03Zm16.88,0c-1.41,0-3.85.03-3.85.03v25.18h2.23v-21.7l22.49,12.99c.07-.39.12-.79.15-1.2.01-.23.02-.47.02-.7v-.57l-20.46-11.81h5.57l14.89,8.6v-2.56l-10.45-6.04h10.45v-2.22h-21.04Z"/>
    </g>
  </g>
</svg>