<svg width="289" height="212" viewBox="0 0 289 212" fill="none" xmlns="http://www.w3.org/2000/svg">
<rect width="289" height="212" rx="15" fill="#1F1D1D"/>
<path d="M226.993 182.993C221.959 136.215 221.424 103.355 221.361 98.9127C221.298 94.4708 222.952 91.2255 222.952 91.2255C222.755 81.7503 221.762 80.0256 221.762 80.0256C219.045 76.0482 213.413 72.8734 213.413 72.8734C213.744 68.8327 213.413 57.0414 213.413 57.0414C211.358 37.9571 197.708 44.5884 197.708 44.5884C183.46 53.4019 197.976 71.557 197.976 71.557L201.552 69.8323C201.946 71.1557 201.883 74.8656 201.883 74.8656C196.054 81.5602 180.75 94.5412 180.75 94.5412C174.654 94.4778 170.085 90.768 170.085 90.768C170.416 88.9095 170.479 84.6083 170.479 84.6083C169.353 84.01 166.037 83.8129 166.037 83.8129C163.123 85.0026 158.948 88.5857 158.948 88.5857C159.279 90.775 162.524 98.9198 162.524 98.9198C164.179 99.4477 181.609 105.284 181.609 105.284C183.2 105.086 188.747 102.897 188.747 102.897C188.993 126.353 196.913 178.889 196.913 178.889C194.956 180.691 189.887 184.338 189.887 184.338C186.262 186.527 187.008 187.865 187.008 187.865C187.353 188.442 188.381 188.393 188.381 188.393C196.61 187.745 205.128 186.457 205.128 186.457C205.191 179.354 203.938 176.038 203.938 176.038C203.607 172.195 204.867 126.085 204.867 126.085C204.867 126.085 214.012 154.377 215.934 178.228C215.934 178.228 212.104 184.704 209.823 188.4C209.823 188.4 208.88 189.843 209.725 190.054C210.323 190.202 213.026 191.194 213.702 190.997C214.378 190.8 225.923 184.634 226.718 183.739L227 182.993H226.993Z" stroke="#FFF9D3" stroke-width="2" stroke-miterlimit="10"/>
<path d="M168.889 84.1369C168.769 80.1806 168.607 74.8517 168.607 74.8517C168.607 74.8517 162.807 73.7958 159.526 75.1192C159.526 75.1192 159.667 82.743 159.928 87.7763" stroke="#FFF9D3" stroke-width="2" stroke-miterlimit="10"/>
<path d="M66.6313 117.026C68.877 112.119 72.8543 106.347 75.7265 104.165C78.7112 101.877 80.2247 98.8778 79.6757 93.9783L77.1696 94.2951C77.1696 94.2951 65.0474 51.051 82.7168 61.364C82.7168 61.364 83.6178 62.0046 84.0332 62.4833C91.9315 71.7262 87.8697 92.9223 87.8697 92.9223L86.4055 93.1054C86.0324 97.315 87.0109 99.0608 88.5807 99.3847C89.9886 99.6733 91.5092 102.024 91.8823 103.918C92.0301 104.664 92.1287 106.903 92.199 109.303" stroke="#FFF9D3" stroke-width="2" stroke-miterlimit="10"/>
<path d="M61 156.229V18L95.7121 54.824V119.405L61 156.229ZM66.6317 31.5934V142.628L92.1923 117.068V57.1541L66.6317 31.5934Z" stroke="#FFF9D3" stroke-width="2" stroke-miterlimit="10"/>
<path d="M166.777 141.052H96.895" stroke="#FFF9D3" stroke-width="2" stroke-miterlimit="10"/>
<path d="M89.8418 141.051L96.9166 145.134V136.969L89.8418 141.051Z" stroke="#FFF9D3" stroke-width="2" stroke-miterlimit="10"/>
<path d="M173.45 141.051L166.375 136.969V145.134L173.45 141.051Z" stroke="#FFF9D3" stroke-width="2" stroke-miterlimit="10"/>
</svg>
