<svg width="65" height="65" viewBox="0 0 65 65" fill="none" xmlns="http://www.w3.org/2000/svg">
<rect width="65" height="65" rx="11" fill="#FFF9D3"/>
<path d="M22.5213 16.0029C19.7944 15.9476 16.6445 16.6953 13.3562 18.1574C12.5235 18.5277 12 19.3854 12 20.3047V46.6458C12 47.4966 12.8742 48.0859 13.6369 47.7249C22.8458 43.3686 29.6631 48.5352 29.9548 48.7569C30.1626 48.919 30.4105 49 30.6657 49C31.5698 49 31.8323 48.1617 31.8323 47.8229V19.5386C31.8323 19.1553 31.6477 18.7961 31.3378 18.5751C31.1979 18.4734 27.8002 16.0994 22.5213 16.0029ZM52.6416 18.1574C49.3525 16.6997 46.1902 15.9763 43.4764 16.0021C38.1946 16.0988 34.8654 18.4734 34.6613 18.5744C34.3477 18.7961 34.1655 19.1548 34.1655 19.5386V47.7581C34.1655 48.1455 34.4207 49 35.3321 49C35.5861 49 35.8379 48.9171 36.0452 48.7549C36.3314 48.5325 43.1498 43.3658 52.3631 47.7236C53.1258 48.0842 54 47.4949 54 46.6445L54 20.3033C53.9321 19.3861 53.4728 18.5272 52.6416 18.1574Z" fill="#1F1D1D"/>
</svg>
