<?xml version="1.0" encoding="utf-8"?>
<!-- Generator: Adobe Illustrator 28.0.0, SVG Export Plug-In . SVG Version: 6.00 Build 0)  -->
<svg version="1.1" id="Glyph" xmlns="http://www.w3.org/2000/svg" xmlns:xlink="http://www.w3.org/1999/xlink" x="0px" y="0px"
	 viewBox="0 0 32 32" style="enable-background:new 0 0 32 32;" xml:space="preserve">
<style type="text/css">
	.st0{fill:#1F1D1D;}
</style>
<path id="XMLID_273_" class="st0" d="M29.1,18.3L28.5,18c-0.7-0.4-1.1-1.1-1.1-2s0.4-1.6,1.1-2l0.6-0.3c1.6-0.9,2.2-3,1.2-4.7
	l-1.1-2c-0.9-1.6-3-2.2-4.7-1.2L24,6.2c-0.7,0.4-1.6,0.4-2.3,0c-0.7-0.4-1.1-1.1-1.1-2V3.5c0-1.9-1.5-3.4-3.4-3.4h-2.3
	c-1.9,0-3.4,1.5-3.4,3.4v0.7c0,0.8-0.4,1.6-1.1,2C9.6,6.6,8.8,6.6,8,6.2L7.5,5.8C5.8,4.9,3.7,5.4,2.8,7.1L1.7,9
	c-0.9,1.6-0.4,3.7,1.2,4.7L3.5,14c0.7,0.4,1.1,1.1,1.1,2s-0.4,1.6-1.1,2l-0.6,0.3c-1.6,0.9-2.2,3-1.2,4.7l1.1,2
	c0.9,1.6,3,2.2,4.7,1.2L8,25.8c0.7-0.4,1.6-0.4,2.3,0c0.7,0.4,1.1,1.1,1.1,2v0.7c0,1.9,1.5,3.4,3.4,3.4h2.3c1.9,0,3.4-1.5,3.4-3.4
	v-0.7c0-0.8,0.4-1.6,1.1-2c0.7-0.4,1.6-0.4,2.3,0l0.6,0.3c1.6,0.9,3.7,0.4,4.7-1.2l1.1-2C31.3,21.3,30.7,19.3,29.1,18.3z M16,21.7
	c-3.1,0-5.7-2.5-5.7-5.7s2.5-5.7,5.7-5.7s5.7,2.5,5.7,5.7S19.1,21.7,16,21.7z"/>
</svg>
