<svg width="31" height="31" viewBox="0 0 31 31" fill="none" xmlns="http://www.w3.org/2000/svg">
<rect width="31" height="31" rx="10" fill="#FFF9D3"/>
<path d="M12.4707 11.2246L9.64648 19H8.49219L11.7441 10.4688H12.4883L12.4707 11.2246ZM14.8379 19L12.0078 11.2246L11.9902 10.4688H12.7344L15.998 19H14.8379ZM14.6914 15.8418V16.7676H9.89844V15.8418H14.6914ZM20.7148 17.916V14.6523C20.7148 14.4023 20.6641 14.1855 20.5625 14.002C20.4648 13.8145 20.3164 13.6699 20.1172 13.5684C19.918 13.4668 19.6719 13.416 19.3789 13.416C19.1055 13.416 18.8652 13.4629 18.6582 13.5566C18.4551 13.6504 18.2949 13.7734 18.1777 13.9258C18.0645 14.0781 18.0078 14.2422 18.0078 14.418H16.9238C16.9238 14.1914 16.9824 13.9668 17.0996 13.7441C17.2168 13.5215 17.3848 13.3203 17.6035 13.1406C17.8262 12.957 18.0918 12.8125 18.4004 12.707C18.7129 12.5977 19.0605 12.543 19.4434 12.543C19.9043 12.543 20.3105 12.6211 20.6621 12.7773C21.0176 12.9336 21.2949 13.1699 21.4941 13.4863C21.6973 13.7988 21.7988 14.1914 21.7988 14.6641V17.6172C21.7988 17.8281 21.8164 18.0527 21.8516 18.291C21.8906 18.5293 21.9473 18.7344 22.0215 18.9062V19H20.8906C20.8359 18.875 20.793 18.709 20.7617 18.502C20.7305 18.291 20.7148 18.0957 20.7148 17.916ZM20.9023 15.1562L20.9141 15.918H19.8184C19.5098 15.918 19.2344 15.9434 18.9922 15.9941C18.75 16.041 18.5469 16.1133 18.3828 16.2109C18.2188 16.3086 18.0938 16.4316 18.0078 16.5801C17.9219 16.7246 17.8789 16.8945 17.8789 17.0898C17.8789 17.2891 17.9238 17.4707 18.0137 17.6348C18.1035 17.7988 18.2383 17.9297 18.418 18.0273C18.6016 18.1211 18.8262 18.168 19.0918 18.168C19.4238 18.168 19.7168 18.0977 19.9707 17.957C20.2246 17.8164 20.4258 17.6445 20.5742 17.4414C20.7266 17.2383 20.8086 17.041 20.8203 16.8496L21.2832 17.3711C21.2559 17.5352 21.1816 17.7168 21.0605 17.916C20.9395 18.1152 20.7773 18.3066 20.5742 18.4902C20.375 18.6699 20.1367 18.8203 19.8594 18.9414C19.5859 19.0586 19.2773 19.1172 18.9336 19.1172C18.5039 19.1172 18.127 19.0332 17.8027 18.8652C17.4824 18.6973 17.2324 18.4727 17.0527 18.1914C16.877 17.9062 16.7891 17.5879 16.7891 17.2363C16.7891 16.8965 16.8555 16.5977 16.9883 16.3398C17.1211 16.0781 17.3125 15.8613 17.5625 15.6895C17.8125 15.5137 18.1133 15.3809 18.4648 15.291C18.8164 15.2012 19.209 15.1562 19.6426 15.1562H20.9023Z" fill="#1F1D1D"/>
</svg>
