<svg width="31" height="31" viewBox="0 0 31 31" fill="none" xmlns="http://www.w3.org/2000/svg">
<rect width="31" height="31" rx="10" fill="#FFF9D3"/>
<path d="M10.9512 9.04102L6.24414 22H4.32031L9.74023 7.78125H10.9805L10.9512 9.04102ZM14.8965 22L10.1797 9.04102L10.1504 7.78125H11.3906L16.8301 22H14.8965ZM14.6523 16.7363V18.2793H6.66406V16.7363H14.6523ZM24.6914 20.1934V14.7539C24.6914 14.3372 24.6068 13.9759 24.4375 13.6699C24.2747 13.3574 24.0273 13.1165 23.6953 12.9473C23.3633 12.778 22.9531 12.6934 22.4648 12.6934C22.0091 12.6934 21.6087 12.7715 21.2637 12.9277C20.9251 13.084 20.6582 13.2891 20.4629 13.543C20.2741 13.7969 20.1797 14.0703 20.1797 14.3633H18.373C18.373 13.9857 18.4707 13.6113 18.666 13.2402C18.8613 12.8691 19.1413 12.5339 19.5059 12.2344C19.877 11.9284 20.3197 11.6875 20.834 11.5117C21.3548 11.3294 21.9342 11.2383 22.5723 11.2383C23.3405 11.2383 24.0176 11.3685 24.6035 11.6289C25.196 11.8893 25.6582 12.2832 25.9902 12.8105C26.3288 13.3314 26.498 13.9857 26.498 14.7734V19.6953C26.498 20.0469 26.5273 20.4212 26.5859 20.8184C26.651 21.2155 26.7454 21.5573 26.8691 21.8438V22H24.9844C24.8932 21.7917 24.8216 21.515 24.7695 21.1699C24.7174 20.8184 24.6914 20.4928 24.6914 20.1934ZM25.0039 15.5938L25.0234 16.8633H23.1973C22.6829 16.8633 22.224 16.9056 21.8203 16.9902C21.4167 17.0684 21.0781 17.1888 20.8047 17.3516C20.5312 17.5143 20.3229 17.7194 20.1797 17.9668C20.0365 18.2077 19.9648 18.4909 19.9648 18.8164C19.9648 19.1484 20.0397 19.4512 20.1895 19.7246C20.3392 19.998 20.5638 20.2161 20.8633 20.3789C21.1693 20.5352 21.5436 20.6133 21.9863 20.6133C22.5397 20.6133 23.028 20.4961 23.4512 20.2617C23.8743 20.0273 24.2096 19.7409 24.457 19.4023C24.7109 19.0638 24.8477 18.735 24.8672 18.416L25.6387 19.2852C25.5931 19.5586 25.4694 19.8613 25.2676 20.1934C25.0658 20.5254 24.7956 20.8444 24.457 21.1504C24.125 21.4499 23.7279 21.7005 23.2656 21.9023C22.8099 22.0977 22.2956 22.1953 21.7227 22.1953C21.0065 22.1953 20.3783 22.0553 19.8379 21.7754C19.304 21.4954 18.8874 21.1211 18.5879 20.6523C18.2949 20.1771 18.1484 19.6465 18.1484 19.0605C18.1484 18.4941 18.2591 17.9961 18.4805 17.5664C18.7018 17.1302 19.0208 16.7689 19.4375 16.4824C19.8542 16.1895 20.3555 15.9681 20.9414 15.8184C21.5273 15.6686 22.1816 15.5938 22.9043 15.5938H25.0039Z" fill="#1F1D1D"/>
</svg>
