<svg xmlns="http://www.w3.org/2000/svg" width="342.373" height="23" viewBox="0 0 342.373 23">
  <g id="logo-white" transform="translate(0 0)">
    <path id="Path_108" data-name="Path 108" d="M171.493,6.14H167.92v4.789h3.573a2.622,2.622,0,0,0,2.168-.675,2.594,2.594,0,0,0,0-3.418A2.662,2.662,0,0,0,171.493,6.14Z" transform="translate(-54.507 -1.991)" fill="none"/>
    <path id="Path_109" data-name="Path 109" d="M73.173,6.14H69.6v4.789h3.573a2.622,2.622,0,0,0,2.168-.675,2.614,2.614,0,0,0,0-3.418A2.662,2.662,0,0,0,73.173,6.14Z" transform="translate(-22.592 -1.991)" fill="none"/>
    <path id="Path_110" data-name="Path 110" d="M10.27,6.14H6.38v5.586h3.89a3.343,3.343,0,0,0,2.7-.892A2.7,2.7,0,0,0,13.7,8.95a2.762,2.762,0,0,0-.729-1.918A3.343,3.343,0,0,0,10.27,6.14Z" transform="translate(-2.071 -1.991)" fill="none"/>
    <path id="Path_111" data-name="Path 111" d="M265.6,6.14H262.41V20.816H265.6a6.823,6.823,0,0,0,5.707-2.485,7.753,7.753,0,0,0,1.628-4.856,7.753,7.753,0,0,0-1.628-4.849A6.822,6.822,0,0,0,265.6,6.14Z" transform="translate(-85.179 -1.991)" fill="none"/>
    <path id="Path_112" data-name="Path 112" d="M8.4.47H0V22.805H4.309V13.715H8.4c2.87,0,4.593-.675,5.8-1.979a6.693,6.693,0,0,0,1.756-4.626,6.693,6.693,0,0,0-1.77-4.626C12.954,1.172,11.266.47,8.4.47Zm2.519,8.524a3.383,3.383,0,0,1-2.7.892h-3.9V4.3H8.2a3.343,3.343,0,0,1,2.7.892,2.762,2.762,0,0,1,.729,1.918A2.7,2.7,0,0,1,10.914,8.994Z" transform="translate(0 -0.15)" fill="#d6c893"/>
    <path id="Path_113" data-name="Path 113" d="M42.429,13.715a5.262,5.262,0,0,1-1.466,4.147,5.734,5.734,0,0,1-7.6,0c-.925-.824-1.445-2.107-1.445-4.147V.47H27.59V13.4c0,3.411,1.02,5.775,2.87,7.429a10.131,10.131,0,0,0,6.707,2.29,10.131,10.131,0,0,0,6.7-2.3c1.851-1.655,2.87-4.019,2.87-7.429V.47H42.429Z" transform="translate(-8.956 -0.15)" fill="#d6c893"/>
    <path id="Path_114" data-name="Path 114" d="M76.251,11.256a6.247,6.247,0,0,0,0-9.125A6.742,6.742,0,0,0,71.375.47h-8.1V22.805h4.275V12.918h1.56l7.943,9.888h5.329L74.022,12.566a5.754,5.754,0,0,0,2.229-1.31ZM73.286,8.419a2.645,2.645,0,0,1-2.168.675H67.545V4.3h3.573a2.741,2.741,0,0,1,2.168.675,2.614,2.614,0,0,1,0,3.418Z" transform="translate(-20.538 -0.15)" fill="#d6c893"/>
    <path id="Path_115" data-name="Path 115" d="M106.091,13.843,97.953.47H94.92V22.805h4.309V10.365l5.363,8.773h3l5.356-8.773V22.805h4.309V.47h-3.033Z" transform="translate(-30.811 -0.15)" fill="#d6c893"/>
    <path id="Path_116" data-name="Path 116" d="M139.859,12.756h6.862V8.926h-6.862V4.3h9.1V.47H135.55V22.805h13.724v-3.83h-9.415Z" transform="translate(-44 -0.15)" fill="#d6c893"/>
    <path id="Path_117" data-name="Path 117" d="M174.562,11.249a6.261,6.261,0,0,0,0-9.125A6.754,6.754,0,0,0,169.679.463H161.54V22.8h4.309V12.911h1.56l7.949,9.888h5.329L172.326,12.56a5.836,5.836,0,0,0,2.236-1.31ZM171.59,8.413a2.645,2.645,0,0,1-2.168.675h-3.573v-4.8h3.573a2.74,2.74,0,0,1,2.168.675,2.594,2.594,0,0,1,0,3.418Z" transform="translate(-52.436 -0.143)" fill="#d6c893"/>
    <path id="Path_118" data-name="Path 118" d="M197.549,12.756h6.862V8.926h-6.862V4.3h9.1V.47H193.24V22.805h13.724v-3.83h-9.415Z" transform="translate(-62.726 -0.15)" fill="#d6c893"/>
    <path id="Path_119" data-name="Path 119" d="M234.7,15.025,222.263.47H219.23V22.805h4.309V8.257L235.98,22.805h3.033V.47H234.7Z" transform="translate(-71.162 -0.15)" fill="#d6c893"/>
    <path id="Path_120" data-name="Path 120" d="M270.73,2.577C268.914,1.226,266.583.47,263.044.47H256V22.805h7.017c3.539,0,5.869-.763,7.686-2.107a11.191,11.191,0,0,0,4.464-9.064,11.2,11.2,0,0,0-4.437-9.057Zm-1.5,13.913a6.822,6.822,0,0,1-5.707,2.485h-3.195V4.3h3.195a6.808,6.808,0,0,1,5.707,2.492,7.754,7.754,0,0,1,1.628,4.843,7.754,7.754,0,0,1-1.628,4.856Z" transform="translate(-83.098 -0.15)" fill="#d6c893"/>
    <path id="Path_121" data-name="Path 121" d="M295.324,7.465c-1.351-.54-2.438-.973-2.438-1.817,0-1.128,1.351-1.432,2.128-1.432a3.911,3.911,0,0,1,2.5.952l.209.2,1.851-2.641-.2-.149a7.429,7.429,0,0,0-4.626-1.506c-2.594,0-5.349,1.614-5.349,4.6a4.093,4.093,0,0,0,2.31,3.721,15.432,15.432,0,0,0,2.074.946c1.472.581,2.749,1.081,2.749,2.283a1.794,1.794,0,0,1-2.026,1.688,4.782,4.782,0,0,1-3.451-1.614l-.162-.189-2.3,2.411.189.176a8.49,8.49,0,0,0,5.748,2.377c3.073,0,5.484-2.141,5.484-4.883C300.011,9.329,297.411,8.3,295.324,7.465Z" transform="translate(-93.677 -0.344)" fill="#d6c893"/>
    <path id="Path_122" data-name="Path 122" d="M323.341,13.843,315.2.47H312.17V22.805h4.309V10.365l5.363,8.773h3l5.356-8.773V22.805h4.309V.47h-3.033Z" transform="translate(-101.331 -0.15)" fill="#fff"/>
    <path id="Path_123" data-name="Path 123" d="M366.742,13.715a5.262,5.262,0,0,1-1.466,4.147,5.727,5.727,0,0,1-7.591,0,5.244,5.244,0,0,1-1.472-4.147V.47h-4.3V13.4c0,3.411,1.02,5.775,2.87,7.429a10.894,10.894,0,0,0,13.4,0c1.851-1.655,2.87-4.019,2.87-7.429V.47h-4.309Z" transform="translate(-114.23 -0.15)" fill="#fff"/>
    <path id="Path_124" data-name="Path 124" d="M389.322,6.253c0-1.722,1.817-2.425,3.445-2.425a5.991,5.991,0,0,1,3.863,1.466l2.229-3.188A10.306,10.306,0,0,0,392.382,0c-3.7,0-7.369,2.3-7.369,6.288a5.634,5.634,0,0,0,3.161,5.072c3,1.756,7.146,2.107,7.146,4.978,0,1.628-1.351,2.81-3.255,2.81a7.342,7.342,0,0,1-5.261-2.458L384,19.619A11.907,11.907,0,0,0,392.071,23c4.019,0,7.564-2.749,7.564-6.707C399.629,8.738,389.322,9.86,389.322,6.253Z" transform="translate(-124.647 0.004)" fill="#fff"/>
    <path id="Path_125" data-name="Path 125" d="M417.589,12.756h6.862V8.926h-6.862V4.3h9.091V.47h-13.4V22.805H427v-3.83h-9.415Z" transform="translate(-134.151 -0.15)" fill="#fff"/>
    <path id="Path_126" data-name="Path 126" d="M453.252,13.715a5.262,5.262,0,0,1-1.466,4.147,5.727,5.727,0,0,1-7.591,0,5.244,5.244,0,0,1-1.472-4.147V.47h-4.3V13.4c0,3.411,1.02,5.775,2.87,7.429a10.894,10.894,0,0,0,13.4,0c1.851-1.655,2.87-4.019,2.87-7.429V.47h-4.309Z" transform="translate(-142.312 -0.15)" fill="#fff"/>
    <path id="Path_127" data-name="Path 127" d="M493.16.47l-8.139,13.373L476.883.47H473.85V22.805h4.309V10.365l5.363,8.773h3l5.363-8.773V22.805h4.3V.47Z" transform="translate(-153.812 -0.15)" fill="#fff"/>
  </g>
</svg>
