<svg width="289" height="213" viewBox="0 0 289 213" fill="none" xmlns="http://www.w3.org/2000/svg">
<rect width="289" height="213" rx="15" fill="#1F1D1D"/>
<path d="M235.559 70.5C242.653 70.528 249.26 72.5998 254.826 76.1608C251.794 74.9749 248.532 74.3284 245.137 74.3284C236.262 74.3284 228.326 78.7351 222.991 85.6486C218.865 90.525 216.217 97.6886 216.039 105.704L216.039 105.704V105.715V105.716V105.716V105.716V105.716V105.717V105.717V105.717V105.718V105.718V105.719V105.719V105.72V105.72V105.721V105.722V105.722V105.723V105.724V105.725V105.725V105.726V105.727V105.728V105.729V105.73V105.731V105.732V105.733V105.735V105.736V105.737V105.738V105.74V105.741V105.742V105.744V105.745V105.746V105.748V105.749V105.751V105.753V105.754V105.756V105.757V105.759V105.761V105.763V105.764V105.766V105.768V105.77V105.772V105.774V105.776V105.778V105.78V105.782V105.784V105.786V105.788V105.791V105.793V105.795V105.797V105.8V105.802V105.804V105.807V105.809V105.812V105.814V105.816V105.819V105.822V105.824V105.827V105.829V105.832V105.835V105.837V105.84V105.843V105.846V105.848V105.851V105.854V105.857V105.86V105.863V105.866V105.869V105.872V105.875V105.878V105.881V105.884V105.887V105.89V105.894V105.897V105.9V105.903V105.907V105.91V105.913V105.916V105.92V105.923V105.927V105.93V105.933V105.937V105.94V105.944V105.947V105.951V105.955V105.958V105.962V105.965V105.969V105.973V105.976V105.98V105.984V105.988V105.991V105.995V105.999V106.003V106.007V106.011V106.014V106.018V106.022V106.026V106.03V106.034V106.038V106.042V106.046V106.05V106.054V106.058V106.062V106.066V106.071V106.075V106.079V106.083V106.087V106.091V106.096V106.1V106.104V106.108V106.113V106.117V106.121V106.126V106.13V106.134V106.139V106.143V106.147V106.152V106.156V106.161V106.165V106.169V106.174V106.178V106.183V106.187V106.192V106.196V106.201V106.205V106.21V106.215V106.219V106.224V106.228V106.233V106.238V106.242V106.247V106.252V106.256V106.261V106.266V106.27V106.275V106.28V106.284V106.289V106.294V106.299V106.303V106.308V106.313V106.318V106.323V106.327V106.332V106.337V106.342V106.347V106.351V106.356V106.361V106.366V106.371V106.376V106.381V106.385V106.39V106.395V106.4V106.405V106.41V106.415V106.42V106.425V106.43V106.434V106.439V106.444V106.449V106.454V106.459V106.464V106.469V106.474V106.479V106.484V106.489V106.494V106.499V106.504V106.509V106.514V106.519V106.524V106.529V106.534V106.539V106.544V106.549V106.554V106.559V106.564V106.569V106.574V106.579V106.584V106.589V106.594V106.599V106.604V106.609V106.614V106.619V106.624V106.629V106.634V106.639V106.644V106.649V106.654V106.659V106.663V106.668V106.673V106.678V106.683V106.688V106.693V106.698V106.703V106.708V106.713V106.718V106.723V106.728V106.733V106.738V106.743V106.748V106.752V106.757V106.762V106.767V106.772V106.777V106.782V106.787V106.791V106.796V106.801V106.806V106.811V106.816V106.82V106.825V106.83V106.835V106.84V106.844V106.849V106.854V106.859V106.864V106.868V106.873V106.878V106.882V106.887V106.892V106.897V106.901V106.906V106.911V106.915V106.92V106.924V106.929V106.934V106.938V106.943V106.947V106.952V106.956V106.961V106.966V106.97V106.975V106.979V106.984V106.988V106.992V106.997V107.001V107.006V107.01V107.015V107.019V107.023V107.028V107.032V107.036V107.041V107.045V107.049V107.053V107.058V107.062V107.066V107.07V107.074V107.079V107.083V107.087V107.091V107.095V107.099V107.103V107.107V107.111V107.115V107.119V107.123V107.127V107.131V107.135V107.139V107.143V107.147V107.151V107.155V107.158V107.162V107.166V107.17V107.174V107.177V107.181V107.185V107.188V107.192V107.196V107.199V107.203V107.206V107.21V107.213V107.217V107.22V107.224V107.227V107.231V107.234V107.238V107.241V107.244V107.248V107.251V107.254V107.257V107.261V107.264V107.267V107.27V107.273V107.276V107.279V107.283V107.286V107.289V107.292V107.294V107.297V107.3V107.303V107.306V107.309V107.312V107.315V107.317V107.32V107.323V107.325V107.328V107.331V107.333V107.336V107.338V107.341V107.343V107.346V107.348V107.351V107.353V107.355V107.358V107.36V107.362V107.365V107.367V107.369V107.371V107.373V107.375V107.377V107.38V107.382V107.384V107.385V107.387V107.389V107.391V107.393V107.395V107.397V107.398V107.4V107.402V107.403V107.405V107.406V107.408V107.41V107.411V107.412V107.414V107.415V107.417V107.418V107.419V107.42V107.422V107.423V107.424V107.425V107.426V107.427V107.428V107.429V107.43V107.431V107.432V107.433V107.434V107.434V107.435V107.436V107.437V107.437V107.438V107.438V107.439V107.439V107.44V107.44V107.441V107.441V107.441V107.441V107.442V107.442V107.442H216.039L216.039 107.453C216.217 115.469 218.865 122.632 222.991 127.509C228.326 134.422 236.262 138.829 245.137 138.829C248.539 138.829 251.802 138.182 254.833 136.996C249.229 140.58 242.567 142.657 235.421 142.657C234.844 142.657 234.275 142.643 233.705 142.614L233.703 142.614C214.575 141.719 199.343 125.931 199.343 106.579C199.343 86.6561 215.499 70.5 235.421 70.5H235.421H235.422H235.422H235.422H235.423H235.423H235.423H235.423H235.424H235.424H235.424H235.424H235.425H235.425H235.425H235.425H235.426H235.426H235.426H235.426H235.427H235.427H235.427H235.427H235.428H235.428H235.428H235.429H235.429H235.429H235.429H235.43H235.43H235.43H235.43H235.431H235.431H235.431H235.431H235.432H235.432H235.432H235.432H235.433H235.433H235.433H235.434H235.434H235.434H235.434H235.435H235.435H235.435H235.435H235.436H235.436H235.436H235.436H235.437H235.437H235.437H235.437H235.438H235.438H235.438H235.439H235.439H235.439H235.439H235.44H235.44H235.44H235.44H235.441H235.441H235.441H235.441H235.442H235.442H235.442H235.443H235.443H235.443H235.443H235.444H235.444H235.444H235.444H235.445H235.445H235.445H235.446H235.446H235.446H235.446H235.447H235.447H235.447H235.447H235.448H235.448H235.448H235.449H235.449H235.449H235.449H235.45H235.45H235.45H235.45H235.451H235.451H235.451H235.451H235.452H235.452H235.452H235.453H235.453H235.453H235.453H235.454H235.454H235.454H235.454H235.455H235.455H235.455H235.456H235.456H235.456H235.456H235.457H235.457H235.457H235.457H235.458H235.458H235.458H235.459H235.459H235.459H235.459H235.46H235.46H235.46H235.461H235.461H235.461H235.461H235.462H235.462H235.462H235.462H235.463H235.463H235.463H235.464H235.464H235.464H235.464H235.465H235.465H235.465H235.465H235.466H235.466H235.466H235.467H235.467H235.467H235.467H235.468H235.468H235.468H235.469H235.469H235.469H235.469H235.47H235.47H235.47H235.47H235.471H235.471H235.471H235.472H235.472H235.472H235.472H235.473H235.473H235.473H235.473H235.474H235.474H235.474H235.475H235.475H235.475H235.475H235.476H235.476H235.476H235.477H235.477H235.477H235.477H235.478H235.478H235.478H235.478H235.479H235.479H235.479H235.48H235.48H235.48H235.48H235.481H235.481H235.481H235.482H235.482H235.482H235.482H235.483H235.483H235.483H235.483H235.484H235.484H235.484H235.485H235.485H235.485H235.485H235.486H235.486H235.486H235.487H235.487H235.487H235.487H235.488H235.488H235.488H235.489H235.489H235.489H235.489H235.49H235.49H235.49H235.49H235.491H235.491H235.491H235.492H235.492H235.492H235.492H235.493H235.493H235.493H235.494H235.494H235.494H235.494H235.495H235.495H235.495H235.495H235.496H235.496H235.496H235.497H235.497H235.497H235.497H235.498H235.498H235.498H235.499H235.499H235.499H235.499H235.5H235.5H235.5H235.5H235.501H235.501H235.501H235.502H235.502H235.502H235.502H235.503H235.503H235.503H235.504H235.504H235.504H235.504H235.505H235.505H235.505H235.505H235.506H235.506H235.506H235.507H235.507H235.507H235.507H235.508H235.508H235.508H235.509H235.509H235.509H235.509H235.51H235.51H235.51H235.51H235.511H235.511H235.511H235.512H235.512H235.512H235.512H235.513H235.513H235.513H235.514H235.514H235.514H235.514H235.515H235.515H235.515H235.515H235.516H235.516H235.516H235.517H235.517H235.517H235.517H235.518H235.518H235.518H235.518H235.519H235.519H235.519H235.52H235.52H235.52H235.52H235.521H235.521H235.521H235.522H235.522H235.522H235.522H235.523H235.523H235.523H235.523H235.524H235.524H235.524H235.525H235.525H235.525H235.525H235.526H235.526H235.526H235.526H235.527H235.527H235.527H235.528H235.528H235.528H235.528H235.529H235.529H235.529H235.529H235.53H235.53H235.53H235.531H235.531H235.531H235.531H235.532H235.532H235.532H235.532H235.533H235.533H235.533H235.534H235.534H235.534H235.534H235.535H235.535H235.535H235.535H235.536H235.536H235.536H235.536H235.537H235.537H235.537H235.538H235.538H235.538H235.538H235.539H235.539H235.539H235.539H235.54H235.54H235.54H235.541H235.541H235.541H235.541H235.542H235.542H235.542H235.542H235.543H235.543H235.543H235.543H235.544H235.544H235.544H235.545H235.545H235.545H235.545H235.546H235.546H235.546H235.546H235.547H235.547H235.547H235.547H235.548H235.548H235.548H235.549H235.549H235.549H235.549H235.55H235.55H235.55H235.55H235.551H235.551H235.551H235.551H235.552H235.552H235.552H235.552H235.553H235.553H235.553H235.553H235.554H235.554H235.554H235.555H235.555H235.555H235.555H235.556H235.556H235.556H235.556H235.557H235.557H235.557H235.557H235.558H235.558H235.558H235.558H235.559H235.559H235.559H235.559Z" fill="#FFF9D3" stroke="#1F1D1D"/>
<path d="M235.809 79.1131C233.698 79.1131 231.671 79.5692 229.774 80.4099C234.195 77.1949 239.473 75.3286 245.137 75.3286C250.382 75.3286 255.287 76.9273 259.491 79.7099C266.865 86.3122 271.5 95.9054 271.5 106.579C271.5 117.252 266.865 126.846 259.491 133.455C255.287 136.231 250.375 137.829 245.137 137.829C239.468 137.829 234.185 135.959 229.761 132.739C231.663 133.585 233.695 134.045 235.809 134.045C241.334 134.045 246.291 130.911 249.846 125.938C253.402 120.965 255.586 114.119 255.586 106.579C255.586 99.0393 253.404 92.1934 249.849 87.2197C246.294 82.2468 241.338 79.1131 235.809 79.1131Z" fill="#FFF9D3" stroke="#1F1D1D"/>
<path d="M45.2885 70H62.0108C77.4789 70 90.16 82.5417 90.16 98.2885V115.011C90.16 130.479 77.6183 143.16 61.8715 143.16H45.1492C29.8204 143.16 17 130.618 17 114.871V98.1492C17 82.8204 29.5417 70 45.2885 70Z" fill="#FFF9D3"/>
<path d="M71.9001 104.644L72.0198 106.678C72.0163 108.444 71.6957 110.235 71.2307 112.075L71.2176 112.084C69.5155 113.199 66.5223 113.491 62.7834 113.009C59.1087 112.534 54.9453 111.343 51.107 109.767C46.3532 107.769 42.8136 105.754 40.3248 103.837C38.0205 102.062 36.6778 100.418 36.0609 99.0062C37.2883 96.3143 39.1349 93.9484 41.4523 92.1031L43.6905 90.3208H40.8294H40.69H40.6778L40.6656 90.3211C37.7299 90.3927 35.082 90.8581 32.9732 91.7807C30.8602 92.7052 29.2195 94.1235 28.4687 96.119C26.9888 99.912 29.0516 104.229 32.8759 108.053L32.8868 108.064L32.898 108.075C37.5244 112.425 43.0011 115.77 48.9834 117.9C55.628 120.443 62.1756 121.592 67.4997 121.305C72.8633 121.022 77.3555 119.171 78.6949 115.36C79.1433 114.221 79.0768 112.91 78.7497 111.616C78.4173 110.302 77.7902 108.901 76.9923 107.517C75.3964 104.748 73.0401 101.912 70.6727 99.7601L69.2046 101.106L71.9001 104.644Z" fill="#FFF9D3" stroke="#1F1D1D" stroke-width="2"/>
<path d="M72.8804 104.281C73.2194 107.141 72.9341 110.041 72.0443 112.781C68.003 115.568 58.6664 114.035 50.7234 110.691C41.108 106.51 36.2307 102.469 35.1159 98.9853C36.3654 96.0019 38.3271 93.3703 40.8293 91.3209L40.9687 91.1815C43.7232 89.0037 47.0077 87.5981 50.485 87.1089C53.9622 86.6198 57.507 87.0648 60.7555 88.3982C64.004 89.7317 66.8391 91.9055 68.9699 94.6966C71.1007 97.4877 72.4503 100.796 72.8804 104.281ZM53.371 126.298C48.2646 126.303 43.3541 124.333 39.6663 120.801C35.9784 117.269 33.7988 112.448 33.583 107.346C42.7385 115.933 54.8967 120.586 67.4456 120.306C65.6032 122.212 63.394 123.726 60.9513 124.755C58.5085 125.785 55.8826 126.31 53.2317 126.298H53.371Z" fill="#1F1D1D"/>
<path d="M162.29 106.571C162.29 116.395 154.325 124.36 144.501 124.36C134.676 124.36 126.711 116.395 126.711 106.571C126.711 96.7458 134.676 88.7812 144.501 88.7812C154.325 88.7812 162.29 96.7458 162.29 106.571Z" fill="#FFF9D3" stroke="#1F1D1D"/>
<path d="M126.078 110.248C125.836 109.044 125.712 107.815 125.711 106.577C125.707 103.278 126.574 100.036 128.222 97.1782C129.871 94.3204 132.244 91.9478 135.102 90.2994C137.96 88.6511 141.202 87.7853 144.501 87.7894M126.078 110.248L144.501 87.7894M126.078 110.248L113.403 88.2949C116.561 82.9206 121.06 78.455 126.46 75.3356C131.944 72.1682 138.165 70.5004 144.498 70.5C150.831 70.4996 157.052 72.1665 162.537 75.3331C167.769 78.3542 172.154 82.6389 175.295 87.7894M126.078 110.248L175.295 87.7894M144.501 87.7894H175.295M144.501 87.7894H175.295" fill="#FFF9D3" stroke="#1F1D1D"/>
<path d="M153.895 90.3117C152.822 89.6941 151.696 89.1866 150.533 88.7939H175.882C178.957 94.2162 180.575 100.344 180.576 106.581C180.577 112.914 178.911 119.135 175.745 124.62C172.579 130.105 168.025 134.659 162.54 137.825C157.308 140.846 151.404 142.502 145.373 142.647L160.771 115.978C160.771 115.978 160.771 115.978 160.771 115.978C162.424 113.123 163.295 109.882 163.297 106.583C163.298 103.284 162.43 100.043 160.779 97.1858C159.129 94.3291 156.754 91.9581 153.895 90.3117Z" fill="#FFF9D3" stroke="#1F1D1D"/>
<path d="M112.832 89.3088L128.23 115.977L112.832 89.3088ZM112.832 89.3088C109.942 94.6041 108.425 100.544 108.424 106.586C108.424 112.919 110.091 119.14 113.258 124.625C116.425 130.109 120.98 134.662 126.465 137.828C131.866 140.945 137.983 142.608 144.216 142.656L156.891 120.703C155.969 121.514 154.966 122.236 153.895 122.856C151.04 124.509 147.799 125.38 144.5 125.381C141.201 125.382 137.959 124.513 135.103 122.862C132.247 121.212 129.876 118.837 128.23 115.978L112.832 89.3088Z" fill="#FFF9D3" stroke="#1F1D1D"/>
</svg>
