<svg width="289" height="213" viewBox="0 0 289 213" fill="none" xmlns="http://www.w3.org/2000/svg">
<rect width="289" height="213" rx="15" fill="#1F1D1D"/>
<path d="M131.018 102.969L125.433 82.1367L119.848 102.969" stroke="#FFF9D3" stroke-width="2" stroke-miterlimit="10"/>
<path d="M122.054 94.7295H128.804" stroke="#FFF9D3" stroke-width="2" stroke-miterlimit="10"/>
<path d="M177.476 104.858V92.2241C177.476 92.2241 182.795 92.5487 180.206 97.659C180.206 97.659 185.791 101.246 177.476 104.858Z" stroke="#FFF9D3" stroke-width="2" stroke-miterlimit="10"/>
<path d="M153.057 129.811C150.052 127.189 146.041 124.809 142.487 123.943C136.685 122.537 133.365 119.407 134.605 113.14H139.79C139.79 113.14 157.485 74.2302 127.247 69.5028C126.074 69.3197 123.618 69.5028 123.618 69.5028C93.2313 73.6559 111.067 113.14 111.067 113.14H116.253C117.493 119.407 114.18 122.537 108.371 123.943C102.561 125.358 95.5118 130.843 93.6474 134.755C91.7831 138.675 91.3669 167.622 91.3669 167.622H159.499C159.499 167.622 159.382 159.466 158.991 151.234" stroke="#FFF9D3" stroke-width="2" stroke-miterlimit="10"/>
<path d="M164.825 123.802C164.85 123.668 164.892 123.544 164.925 123.444C165.766 121.122 168.92 117.867 171.525 117.035C174.122 116.194 175.612 114.338 175.054 110.626H172.732C172.732 110.626 164.742 87.2221 178.35 84.7585C178.35 84.7585 179.449 84.6503 179.973 84.7585C193.515 87.5634 185.591 110.626 185.591 110.626H183.269C182.72 114.338 184.201 116.194 186.798 117.035C189.403 117.867 192.558 121.122 193.398 123.444C193.739 124.384 193.972 126.981 194.122 129.736" stroke="#FFF9D3" stroke-width="2" stroke-miterlimit="10"/>
<path d="M200.756 150.31C200.29 150.776 196.286 151.717 196.286 151.717C194.83 149.986 193.715 148.338 192.866 146.773C191.559 144.343 190.918 142.112 190.727 140.115C190.236 135.079 192.583 131.5 194.122 129.736C194.838 128.912 195.379 128.488 195.379 128.488C195.696 121.912 196.278 117.967 196.927 115.587C197.951 111.808 199.166 111.917 199.79 111.567C200.806 111.001 203.111 112.116 203.111 112.116C202.845 116.219 203.211 122.029 203.586 126.324C203.877 129.669 204.168 132.091 204.168 132.091C205.575 139.965 201.23 149.836 200.756 150.31Z" stroke="#FFF9D3" stroke-width="2" stroke-miterlimit="10"/>
<path d="M153.049 127.938C153.057 127.696 158.492 121.121 161.929 121.754C161.929 121.754 164.617 123.235 165.05 124.118C165.724 125.499 165.932 145.341 163.178 151.483C163.178 151.483 157.127 151.142 156.469 151.026C156.469 151.026 152.749 134.53 153.04 127.938H153.049Z" stroke="#FFF9D3" stroke-width="2" stroke-miterlimit="10"/>
<path d="M179.208 69.6274V24.6584H71.6584V167.622H177.21M179.358 174.28H65V18H185.866V69.6274" stroke="#FFF9D3" stroke-width="2" stroke-miterlimit="10"/>
<path d="M161.463 151.567C161.463 151.567 162.087 155.512 163.81 157.235C163.81 157.235 167.647 159.083 174.539 159.099C174.539 159.099 184.376 194.131 194.114 211.992" stroke="#FFF9D3" stroke-width="2" stroke-miterlimit="10"/>
<path d="M198.858 151.492C198.858 151.492 203.919 184.426 224.285 212" stroke="#FFF9D3" stroke-width="2" stroke-miterlimit="10"/>
<path d="M203.586 126.407V69.6274H155.928V124.767M165.192 140.115H190.727M196.927 115.587V76.2858H162.587V122.129M164.434 146.773H192.866" stroke="#FFF9D3" stroke-width="2" stroke-miterlimit="10"/>
</svg>
