<svg width="289" height="213" viewBox="0 0 289 213" fill="none" xmlns="http://www.w3.org/2000/svg">
<rect width="289" height="213" rx="15" fill="#1F1D1D"/>
<path d="M194.273 68.401H194.264C193.951 68.1745 193.62 67.9566 193.28 67.7474C187.502 64.1484 178.474 61.5603 164.461 63.1201C164.461 63.1201 193.132 64.1049 193.742 81.4464C193.742 81.4464 195.955 97.0712 165.202 103.712C165.202 103.712 207.153 102.361 203.214 80.3397C203.214 80.3397 202.665 77.7254 200.443 74.5098" stroke="#FFF9D3" stroke-width="2" stroke-miterlimit="10"/>
<path d="M82.8775 58.6236C82.5203 52.48 82.3198 41.7526 82.3198 41.7526C86.3807 40.1143 93.5613 41.4215 93.5613 41.4215C93.5613 41.4215 93.8663 51.6434 93.997 56.0877" stroke="#FFF9D3" stroke-width="2" stroke-miterlimit="10"/>
<path d="M89.2478 97.8994C98.058 103.991 112.289 104.043 112.289 104.043C102.955 105.368 95.7836 104.775 90.3022 103.206" stroke="#FFF9D3" stroke-width="2" stroke-miterlimit="10"/>
<path d="M86.3546 95.4504C85.5006 94.5529 84.7599 93.5681 84.1586 92.4789C83.6706 91.5987 83.2785 90.6576 82.9909 89.6467C82.712 88.6968 82.5377 87.686 82.468 86.6141C82.468 86.6141 81.1696 79.1198 90.5985 71.9915H90.6072" stroke="#FFF9D3" stroke-width="2" stroke-miterlimit="10"/>
<path d="M85.6139 69.2375C77.5444 72.854 71.0697 78.6839 73.0304 88.0082C73.0304 88.0082 73.6404 90.5092 75.8538 93.5854" stroke="#FFF9D3" stroke-width="2" stroke-miterlimit="10"/>
<path d="M104.927 65.02H104.916" stroke="#FFF9D3" stroke-width="2" stroke-miterlimit="10"/>
<path d="M204.931 55.8262L207.24 62.3184L213.462 59.3642L210.508 65.5862L217 67.8955L210.508 70.2048L213.462 76.4269L207.24 73.464L204.931 79.9562L202.621 73.464L196.399 76.4269L199.354 70.2048L192.861 67.8955L199.354 65.5862L196.399 59.3642L202.621 62.3184L204.931 55.8262Z" stroke="#FFF9D3" stroke-width="2" stroke-miterlimit="10"/>
<path d="M122.31 79.1459C123.19 79.05 109.683 141.968 108.698 173.304C108.698 173.304 104.594 179.047 93.9361 184.79C93.9361 184.79 93.7095 186.881 93.9361 189.034C93.9361 189.034 109.665 189.095 114.153 188.668C114.153 188.668 129.203 131.484 136.419 116.879C136.419 116.879 150.693 168.224 159.712 180.197C159.712 180.197 163.119 191.186 163.241 195.744C163.241 195.744 164.531 197.469 169.15 197.469C169.15 197.469 171.241 186.088 171.119 179.631C171.119 179.631 157.098 122.055 154.143 95.7293C154.143 95.7293 155.703 72.8454 156.191 71.2856C156.191 71.2856 157.917 64.4797 144.627 53.5693C144.627 53.5693 140.113 49.2819 145.342 40.1841C145.342 40.1841 150.083 22.1018 136.61 19.0257C136.61 19.0257 116.742 16.9952 121.168 49.0466C121.168 49.0466 126.031 49.1686 128.122 48.8026C128.122 48.8026 127.277 54.7283 126.127 58.336C126.127 58.336 120.062 63.9132 113.169 66.5362C113.169 66.5362 104.28 65.7171 95.7487 61.9438C95.7487 61.9438 95.6528 57.604 95.6267 57.1422C95.6267 57.1422 88.7598 50.9463 81.2567 60.4885C81.2567 60.4885 80.9779 66.362 81.2567 66.8238C81.2567 66.8238 103.217 79.0849 104.533 79.416C104.533 79.416 120.114 79.416 122.327 79.172L122.31 79.1459Z" stroke="#FFF9D3" stroke-width="2" stroke-miterlimit="10"/>
<path d="M83.0694 89.4204L85.3787 95.9126L91.6007 92.9497L88.6465 99.1717L95.1387 101.481L88.6465 103.79L91.6007 110.012L85.3787 107.058L83.0694 113.55L80.7601 107.058L74.538 110.012L77.4922 103.79L71 101.481L77.4922 99.1717L74.538 92.9497L80.7601 95.9126L83.0694 89.4204Z" stroke="#FFF9D3" stroke-width="2" stroke-miterlimit="10"/>
</svg>
