<svg width="39" height="39" viewBox="0 0 39 39" fill="none" xmlns="http://www.w3.org/2000/svg">
<path d="M19.5 39C30.2696 39 39 30.2696 39 19.5C39 8.73045 30.2696 0 19.5 0C8.73045 0 0 8.73045 0 19.5C0 30.2696 8.73045 39 19.5 39Z" fill="#FFF9D3"/>
<path d="M20.8923 9C18.4406 9.00297 16.0902 9.97823 14.3565 11.7119C12.6229 13.4455 11.6476 15.7959 11.6447 18.2477C11.6512 20.2393 12.3067 22.1745 13.5118 23.7601L9.3895 27.8824C9.26628 28.0049 9.16845 28.1506 9.10161 28.311C9.03477 28.4714 9.00024 28.6434 9 28.8172C8.99976 28.991 9.03381 29.1631 9.1002 29.3237C9.16659 29.4843 9.26402 29.6302 9.3869 29.7531C9.50978 29.876 9.6557 29.9734 9.8163 30.0398C9.9769 30.1062 10.149 30.1402 10.3228 30.14C10.4966 30.1398 10.6686 30.1052 10.829 30.0384C10.9894 29.9716 11.1351 29.8737 11.2576 29.7505L15.3799 25.6282C16.9655 26.8333 18.9007 27.4888 20.8923 27.4953C23.345 27.4953 25.6971 26.521 27.4314 24.7868C29.1657 23.0525 30.14 20.7003 30.14 18.2477C30.14 15.795 29.1657 13.4429 27.4314 11.7086C25.6971 9.97431 23.345 9 20.8923 9ZM20.8923 24.8531C19.5859 24.8531 18.3088 24.4657 17.2225 23.7399C16.1363 23.0141 15.2896 21.9825 14.7897 20.7755C14.2897 19.5685 14.1589 18.2403 14.4138 16.959C14.6686 15.6777 15.2978 14.5007 16.2215 13.5769C17.1453 12.6531 18.3223 12.024 19.6037 11.7691C20.885 11.5142 22.2131 11.6451 23.4201 12.145C24.6271 12.645 25.6588 13.4916 26.3846 14.5779C27.1104 15.6641 27.4978 16.9412 27.4978 18.2477C27.496 19.999 26.7995 21.6781 25.5611 22.9164C24.3227 24.1548 22.6436 24.8513 20.8923 24.8531Z" fill="#1F1D1D"/>
<path d="M23.5344 16.9266H22.2133V15.6055C22.2133 15.2551 22.0742 14.9191 21.8264 14.6714C21.5786 14.4236 21.2426 14.2844 20.8922 14.2844C20.5419 14.2844 20.2058 14.4236 19.9581 14.6714C19.7103 14.9191 19.5711 15.2551 19.5711 15.6055V16.9266H18.2501C17.8997 16.9266 17.5636 17.0658 17.3159 17.3136C17.0681 17.5613 16.929 17.8973 16.929 18.2477C16.929 18.5981 17.0681 18.9341 17.3159 19.1819C17.5636 19.4296 17.8997 19.5688 18.2501 19.5688H19.5711V20.8899C19.5711 21.2403 19.7103 21.5763 19.9581 21.8241C20.2058 22.0718 20.5419 22.211 20.8922 22.211C21.2426 22.211 21.5786 22.0718 21.8264 21.8241C22.0742 21.5763 22.2133 21.2403 22.2133 20.8899V19.5688H23.5344C23.8848 19.5688 24.2208 19.4296 24.4686 19.1819C24.7163 18.9341 24.8555 18.5981 24.8555 18.2477C24.8555 17.8973 24.7163 17.5613 24.4686 17.3136C24.2208 17.0658 23.8848 16.9266 23.5344 16.9266Z" fill="#1F1D1D"/>
</svg>
